<svg xmlns="http://www.w3.org/2000/svg" width="680" height="260" viewBox="0 0 680 260" fill="none">
  <title>DiffViewr logo</title>
  <rect width="680" height="260" rx="24" fill="#080D12"/>
  <rect x=".75" y=".75" width="678.5" height="258.5" rx="23.25" stroke="#20343D" stroke-width="1.5"/>
  <g transform="translate(42 34) scale(.75)">
    <rect width="256" height="256" rx="60" fill="#081017"/>
    <rect x=".75" y=".75" width="254.5" height="254.5" rx="59.25" stroke="#294550" stroke-width="1.5"/>
    <path d="M106 62H80C68.954 62 60 70.954 60 82V174C60 185.046 68.954 194 80 194H106" stroke="#EDF9FB" stroke-width="14" stroke-linecap="round"/>
    <path d="M150 62H176C187.046 62 196 70.954 196 82V174C196 185.046 187.046 194 176 194H150" stroke="#EDF9FB" stroke-width="14" stroke-linecap="round"/>
    <path d="M96 94H154" stroke="#30CFD0" stroke-width="12" stroke-linecap="round"/>
    <path d="M110 128H168" stroke="#30CFD0" stroke-width="12" stroke-linecap="round"/>
    <path d="M88 162H146" stroke="#30CFD0" stroke-width="12" stroke-linecap="round"/>
  </g>
  <text x="258" y="104" fill="#71808C" font-size="13" font-weight="500" letter-spacing="2.6" font-family="JetBrains Mono, Consolas, monospace">CONFIG DIFF TOOL</text>
  <text x="254" y="158" fill="#EDF9FB" font-size="62" font-weight="650" letter-spacing="-2.5" font-family="Geist, Arial, sans-serif">DiffViewr</text>
  <path d="M258 184H592" stroke="#20343D"/>
  <text x="258" y="211" fill="#82919C" font-size="13" letter-spacing=".5" font-family="JetBrains Mono, Consolas, monospace">JSON · YAML · ENV</text>
  <path d="M548 211H592" stroke="#30CFD0" stroke-width="3" stroke-linecap="round"/>
</svg>
